<?xml version="1.0" encoding="UTF-8" standalone="no"?>
<!-- Created with Inkscape (http://www.inkscape.org/) -->

<svg
   xmlns:dc="http://purl.org/dc/elements/1.1/"
   xmlns:cc="http://creativecommons.org/ns#"
   xmlns:rdf="http://www.w3.org/1999/02/22-rdf-syntax-ns#"
   xmlns:svg="http://www.w3.org/2000/svg"
   xmlns="http://www.w3.org/2000/svg"
   xmlns:xlink="http://www.w3.org/1999/xlink"
   xmlns:sodipodi="http://sodipodi.sourceforge.net/DTD/sodipodi-0.dtd"
   xmlns:inkscape="http://www.inkscape.org/namespaces/inkscape"
   width="1024"
   height="704"
   viewBox="0 0 270.93333 186.26667"
   version="1.1"
   id="svg8"
   inkscape:version="0.92.4 5da689c313, 2019-01-14"
   sodipodi:docname="title.svg"
   inkscape:export-filename="/home/klie/git/ludum-dare-45/ui/title.png"
   inkscape:export-xdpi="96"
   inkscape:export-ydpi="96">
  <defs
     id="defs2">
    <linearGradient
       inkscape:collect="always"
       id="linearGradient4678">
      <stop
         style="stop-color:#666666;stop-opacity:1"
         offset="0"
         id="stop4674" />
      <stop
         style="stop-color:#452ba1;stop-opacity:0.24367817"
         offset="1"
         id="stop4676" />
    </linearGradient>
    <ellipse
       style="opacity:1;fill:#000000;fill-opacity:0;stroke:#000000;stroke-width:0.51390314;stroke-opacity:1"
       id="path4530"
       cx="132.2984"
       cy="208.80103"
       rx="129.12735"
       ry="41.605602" />
    <linearGradient
       inkscape:collect="always"
       xlink:href="#linearGradient4678"
       id="linearGradient4692"
       gradientUnits="userSpaceOnUse"
       x1="147.11375"
       y1="181.12997"
       x2="179.60023"
       y2="227.00151"
       gradientTransform="translate(80.448128,4.2763124)" />
    <linearGradient
       inkscape:collect="always"
       xlink:href="#linearGradient4678"
       id="linearGradient4696"
       gradientUnits="userSpaceOnUse"
       x1="147.11375"
       y1="181.12997"
       x2="179.60023"
       y2="227.00151"
       gradientTransform="translate(72.964581,14.967094)" />
  </defs>
  <sodipodi:namedview
     id="base"
     pagecolor="#ffffff"
     bordercolor="#666666"
     borderopacity="1.0"
     inkscape:pageopacity="1"
     inkscape:pageshadow="2"
     inkscape:zoom="0.98994949"
     inkscape:cx="148.97011"
     inkscape:cy="256.09317"
     inkscape:document-units="mm"
     inkscape:current-layer="layer1"
     showgrid="false"
     units="px"
     inkscape:window-width="2560"
     inkscape:window-height="1328"
     inkscape:window-x="0"
     inkscape:window-y="56"
     inkscape:window-maximized="1" />
  <metadata
     id="metadata5">
    <rdf:RDF>
      <cc:Work
         rdf:about="">
        <dc:format>image/svg+xml</dc:format>
        <dc:type
           rdf:resource="http://purl.org/dc/dcmitype/StillImage" />
        <dc:title></dc:title>
      </cc:Work>
    </rdf:RDF>
  </metadata>
  <g
     inkscape:label="Layer 1"
     inkscape:groupmode="layer"
     id="layer1"
     transform="translate(0,-110.73331)">
    <text
       xml:space="preserve"
       style="font-style:normal;font-weight:normal;font-size:10.58333302px;line-height:1.25;font-family:sans-serif;letter-spacing:0px;word-spacing:0px;fill:#000000;fill-opacity:1;stroke:none;stroke-width:0.26458332"
       id="text4520"
       x="-182.42749"
       y="-777.1582"
       transform="matrix(-0.88638111,0,0,-0.88638111,252.66372,366.92952)"><textPath
         style="stroke-width:0.26458332"
         xlink:href="#path4530"
         id="textPath4532"><tspan
   style="font-style:normal;font-variant:normal;font-weight:normal;font-stretch:normal;font-size:50.79999924px;font-family:TSCu_Comic;-inkscape-font-specification:TSCu_Comic;stroke-width:0.26458332"
   id="tspan4518">Magic Melody</tspan></textPath></text>
    <rect
       style="opacity:1;fill:#6a5400;fill-opacity:1;stroke:none;stroke-width:0.18798116;stroke-opacity:1"
       id="rect4591"
       width="16.710289"
       height="26.774441"
       x="32.494301"
       y="260.72314"
       rx="192.49271"
       ry="6.277236" />
    <path
       style="fill:#0d5b00;fill-opacity:1;stroke:none;stroke-width:0.29217851px;stroke-linecap:butt;stroke-linejoin:miter;stroke-opacity:1"
       d="m 2.7035441,262.5259 c 65.8173119,0.59029 70.8347719,0 70.8347719,0 L 45.283874,246.21319 H 60.2568 L 45.982143,231.93853 h 8.371756 L 39.056507,205.44267 23.859763,231.7642 h 12.785443 l -14.200268,14.20027 h 15.97114 z"
       id="path4581"
       inkscape:connector-curvature="0" />
    <text
       xml:space="preserve"
       style="font-style:normal;font-weight:normal;font-size:16.82620239px;line-height:1.25;font-family:sans-serif;letter-spacing:0px;word-spacing:0px;fill:#000000;fill-opacity:1;stroke:none;stroke-width:0.42065507"
       x="68.272133"
       y="286.16223"
       id="text4599"><tspan
         sodipodi:role="line"
         id="tspan4597"
         x="68.272133"
         y="286.16223"
         style="font-style:normal;font-variant:normal;font-weight:normal;font-stretch:normal;font-size:19.75555611px;font-family:TSCu_Comic;-inkscape-font-specification:TSCu_Comic;stroke-width:0.42065507">Press &lt;Enter&gt; To Start</tspan></text>
    <path
       style="opacity:1;fill:url(#linearGradient4692);fill-opacity:1;stroke:none;stroke-width:0.26449791;stroke-opacity:1"
       d="m 255.29867,180.25584 c -0.49336,0.003 -0.9712,0.0353 -1.41765,0.0992 l -24.16798,3.45887 c -1.69049,0.24193 -2.45393,0.87369 -2.15116,1.59237 -0.47817,1.10073 -0.79055,2.91805 -0.79055,4.9858 v 30.85563 a 8.772975,8.86134 0 0 0 -4.9844,-1.5716 8.772975,8.86134 0 0 0 -8.77322,8.86157 8.772975,8.86134 0 0 0 8.77322,8.86107 8.772975,8.86134 0 0 0 8.7727,-8.86107 8.772975,8.86134 0 0 0 -0.18351,-1.7585 c 0.0746,-0.66068 0.1172,-1.37278 0.1172,-2.12038 v -34.26672 c 0,-1.2355 -0.11229,-2.38118 -0.30379,-3.33944 1.72404,0.54008 3.91773,0.76957 5.64184,0.52283 l 23.71924,-3.39449 c -0.22014,1.00109 -0.35056,2.22792 -0.35056,3.56115 v 30.85561 a 8.772975,8.86134 0 0 0 -4.98493,-1.57159 8.772975,8.86134 0 0 0 -8.77269,8.86158 8.772975,8.86134 0 0 0 8.77269,8.86107 8.772975,8.86134 0 0 0 8.77322,-8.86107 8.772975,8.86134 0 0 0 -0.18402,-1.75799 c 0.0746,-0.66075 0.1172,-1.3732 0.1172,-2.1209 v -34.26671 c 0,-1.95445 -0.27918,-3.6842 -0.71346,-4.79786 0.0741,-0.40911 -0.23673,-0.87268 -0.96994,-1.32342 -1.37703,-0.84656 -3.80158,-1.37824 -5.93945,-1.36497 z"
       id="path4603"
       inkscape:connector-curvature="0" />
    <text
       id="text4713"
       y="185.70737"
       x="68.309219"
       style="font-style:normal;font-weight:normal;font-size:15.2709341px;line-height:1.25;font-family:sans-serif;letter-spacing:0px;word-spacing:0px;fill:#000000;fill-opacity:1;stroke:none;stroke-width:0.38177335"
       xml:space="preserve"><tspan
         style="font-style:normal;font-variant:normal;font-weight:normal;font-stretch:normal;font-size:12.69999981px;font-family:TSCu_Comic;-inkscape-font-specification:TSCu_Comic;stroke-width:0.38177335"
         y="185.70737"
         x="68.309219"
         sodipodi:role="line"
         id="tspan4719">You need to connect</tspan><tspan
         style="font-style:normal;font-variant:normal;font-weight:normal;font-stretch:normal;font-size:12.69999981px;font-family:TSCu_Comic;-inkscape-font-specification:TSCu_Comic;stroke-width:0.38177335"
         y="204.79604"
         x="68.309219"
         sodipodi:role="line"
         id="tspan4725">sources so the mix sounds</tspan><tspan
         style="font-style:normal;font-variant:normal;font-weight:normal;font-stretch:normal;font-size:12.69999981px;font-family:TSCu_Comic;-inkscape-font-specification:TSCu_Comic;stroke-width:0.38177335"
         y="223.8847"
         x="68.309219"
         sodipodi:role="line"
         id="tspan4729">like the drain</tspan><tspan
         style="font-style:normal;font-variant:normal;font-weight:normal;font-stretch:normal;font-size:12.69999981px;font-family:TSCu_Comic;-inkscape-font-specification:TSCu_Comic;stroke-width:0.38177335"
         y="242.97337"
         x="68.309219"
         sodipodi:role="line"
         id="tspan4731">Press &lt;Space&gt; to interact!</tspan></text>
  </g>
</svg>
